<svg xmlns="http://www.w3.org/2000/svg" width="210.371" height="69.666" viewBox="0 0 210.371 69.666">
  <g id="logo" transform="translate(0)">
    <g id="SvgjsG21396" transform="translate(0 6.333)">
      <g id="Group_12" data-name="Group 12">
        <path id="Path_5" data-name="Path 5" d="M32.941,106.714C33.3,87.928,52.974,74.281,74.694,72.46c5.289-.442,14.237-.566,20.859,1.508l-6.266,11.56a51.994,51.994,0,0,0-14.686-1.2c-22.155.767-36.1,13.766-36.408,26.909a19.52,19.52,0,0,0,9.9,17.588l-.437.373C37.942,124.361,32.744,116.758,32.941,106.714Z" transform="translate(-32.936 -72.194)" fill="#fff"/>
        <path id="Path_6" data-name="Path 6" d="M175.383,382.98c2.2-10.97,14.415-19.35,33.615-18.348a53.551,53.551,0,0,1,8.372.991l-5.55,10.234c-1.727-.237-4.424-.718-6.739-.842-15.126-.791-24.433,5.467-25.977,13.447a11.954,11.954,0,0,0,5.312,12.084l-.44.338C176.468,396.729,174.036,389.686,175.383,382.98Z" transform="translate(-165.066 -344.049)" fill="#fff"/>
        <path id="Path_7" data-name="Path 7" d="M295.348,616.86c3.675-6.179,14.749-8.18,24.636-5.779l-2.9,5.313c-7.86-1.808-16.959-.58-19.567,3.951-1.418,2.466-.627,5.854.974,8.246l-.294.3C294.5,625.58,293.157,620.546,295.348,616.86Z" transform="translate(-275.964 -572.375)" fill="#fff"/>
      </g>
    </g>
    <g id="SvgjsG21397" transform="translate(73.361)">
      <rect id="Rectangle_7" data-name="Rectangle 7" width="0.581" height="0.581" transform="translate(136.43)" fill="#fff" opacity="0"/>
      <rect id="Rectangle_8" data-name="Rectangle 8" width="1.742" height="69.666" transform="translate(0)" fill="#fff"/>
    </g>
    <g id="SvgjsG21398" transform="translate(89.194 3.167)">
      <path id="Path_8" data-name="Path 8" d="M79.845,79.277h9.919L70.587,26.709H60.559L71.689,58.118Zm-40.556,0h9.7L60.449,51.285,55.71,38.721Zm105.555,0L130.628,59.44a26.977,26.977,0,0,0,5.069-2.094,16.665,16.665,0,0,0,3.967-3.416,13.2,13.2,0,0,0,2.535-4.519,16.851,16.851,0,0,0,.992-5.951,17.463,17.463,0,0,0-1.322-6.943,14.73,14.73,0,0,0-3.857-5.18,17.612,17.612,0,0,0-6.172-3.306,27.044,27.044,0,0,0-8.155-1.212H100.32v8.376h22.593q5.18,0,8.045,2.2t2.865,6.612a7.765,7.765,0,0,1-2.865,6.392q-2.865,2.425-7.935,2.425h-22.7V79.277h9.147V60.982h11.572l12.894,18.295h10.91Z" transform="translate(-39.289 -26.709)" fill="#42b546"/>
    </g>
    <g id="SvgjsG21399" transform="translate(89.194 61.222)">
      <path id="Path_9" data-name="Path 9" d="M5.395,33.978,5.03,32.943H2.921l-.365,1.035H1.489l1.849-5.021H4.613l1.849,5.021H5.395ZM3.226,32.071h1.5l-.747-2.13Zm13.041-2.2H14.4v1.14h1.65v.907H14.4v1.136h1.862v.921H13.355V28.957h2.912v.917Zm9.385,4.173a2.42,2.42,0,0,1-2.516-2.568,2.6,2.6,0,0,1,4.778-1.411L27,30.556a1.381,1.381,0,0,0-1.3-.761,1.5,1.5,0,0,0-1.522,1.661,1.523,1.523,0,0,0,1.56,1.685,1.3,1.3,0,0,0,1.376-1.053H25.746V31.25h2.359v2.728h-.82v-.695a1.854,1.854,0,0,1-1.633.764Zm9.674-.069V28.957h1.042v5.021Zm10.146.069A1.882,1.882,0,0,1,43.4,32.588l1.077-.247a.949.949,0,0,0,1.035.855c.424,0,.761-.188.757-.612,0-.473-.559-.622-1.171-.81-.737-.229-1.525-.5-1.525-1.425s.764-1.463,1.772-1.463a1.816,1.816,0,0,1,1.974,1.32l-1.008.25a.826.826,0,0,0-.9-.719c-.42,0-.778.174-.778.587,0,.386.493.514,1.063.685.757.229,1.654.521,1.654,1.522,0,1.067-.893,1.515-1.876,1.515Zm19.618-.069-1.306-2.21h-.3v2.21H62.439V28.957H64.26a1.426,1.426,0,0,1,1.616,1.5,1.211,1.211,0,0,1-1.063,1.258l1.511,2.262H65.09Zm-1.609-4.156v1.2H64.1c.556,0,.782-.236.782-.6s-.226-.6-.782-.6h-.615Zm9.746,4.156V28.957H74.27v5.021Zm8.478,0V28.957h1.817a2.238,2.238,0,0,1,2.394,2.509,2.239,2.239,0,0,1-2.394,2.512H81.706Zm1.043-.921h.723c.924,0,1.348-.577,1.348-1.591s-.424-1.591-1.348-1.591h-.723v3.183Zm13.2-3.183H94.083v1.14h1.651v.907H94.083v1.136h1.862v.921H93.034V28.957h2.912v.917Zm9.864,4.1-1.306-2.21h-.3v2.21h-1.042V28.957h1.821a1.426,1.426,0,0,1,1.616,1.5,1.211,1.211,0,0,1-1.063,1.258l1.511,2.262H105.81ZM104.2,29.822v1.2h.615c.556,0,.782-.236.782-.6s-.226-.6-.782-.6H104.2Z" transform="translate(-1.489 -28.888)" fill="#fff"/>
    </g>
  </g>
</svg>
